<?xml version="1.0" encoding="UTF-8"?><svg id="_イヤー_1" xmlns="http://www.w3.org/2000/svg" viewBox="0 0 400 400"><defs><style>.cls-1{fill:none;stroke:#000;stroke-miterlimit:10;stroke-width:15px;}</style></defs><rect class="cls-1" x="11.5" y="11.5" width="377" height="377" rx="79.4" ry="79.4"/><path d="M129.76,129.9c36.48,0,59.83,25.86,59.83,68.9s-23.35,68.9-60.21,68.9h-57.71V129.9h58.09Zm-9.26,118.11c31.07,0,44.97-15.25,44.97-49.21,0-27.98-9.07-49.21-44.77-49.21h-24.9v98.43h24.7Z"/><path d="M333.81,173.94h-24.12c-4.82-18.33-16.21-27.41-34.35-27.41-26.25,0-41.88,21.81-41.88,52.49s15.44,52.49,41.88,52.49c19.69,0,32.62-13.9,35.12-36.09h23.54c-2.51,33-24.7,55.78-58.67,55.78-19.49,0-35.32-6.95-47.67-20.46-12.16-13.7-18.33-31.07-18.33-51.72,0-39.37,24.51-72.18,66-72.18,31.84,0,55.39,17.95,58.48,47.09Z"/></svg>