<?xml version="1.0" encoding="UTF-8"?><svg id="_イヤー_1" xmlns="http://www.w3.org/2000/svg" viewBox="0 0 400 400"><defs><style>.cls-1{fill:#fff;}.cls-2{fill:none;stroke:#fff;stroke-miterlimit:10;stroke-width:15px;}</style></defs><rect class="cls-2" x="11.5" y="11.5" width="377" height="377" rx="79.4" ry="79.4"/><path class="cls-1" d="M135.44,129.9c27.6,0,44.58,12.93,44.58,37.25,0,17.37-7.91,29.53-22.77,34.74v.39c13.32,1.74,20.46,12.74,20.46,29.53,0,18.33,2.7,30.3,7.53,35.9h-25.86c-2.51-3.47-3.67-9.65-3.67-20.46,0-15.05-2.32-24.7-6.75-29.33s-11-6.95-19.88-6.95h-36.28v56.74h-24.12V129.9h66.78Zm-2.51,62.72c14.47,0,22.97-7.14,22.97-22s-6.95-21.04-23.16-21.04h-39.95v43.04h40.14Z"/><path class="cls-1" d="M335.34,199.03c0,39.56-25.09,72.18-66,72.18s-66-32.81-66-72.18,24.9-72.18,66-72.18,66,33,66,72.18Zm-66,52.49c29.72,0,41.88-26.25,41.88-52.49s-12.35-52.49-42.07-52.49-41.69,26.44-41.69,52.49,12.35,52.49,41.88,52.49Z"/></svg>