<?xml version="1.0" encoding="UTF-8"?><svg id="_イヤー_1" xmlns="http://www.w3.org/2000/svg" viewBox="0 0 400 400"><defs><style>.cls-1{fill:#8b8b8b;}.cls-2{fill:none;stroke:#8b8b8b;stroke-miterlimit:10;stroke-width:15px;}</style></defs><rect class="cls-2" x="11.5" y="11.5" width="377" height="377" rx="79.4" ry="79.4"/><path class="cls-1" d="M126.41,129.9c23.74,0,40.14,11.58,40.14,34.16,0,13.9-6.75,23.35-19.69,29.33v.39c16.6,3.67,25.86,16.79,25.86,35.51,0,24.7-19.3,38.41-49.79,38.41H58.67V129.9H126.41Zm-3.86,57.71c11,0,19.88-6.75,19.88-19.3s-6.37-18.72-19.49-18.72h-40.14v38.02h39.76Zm3.47,60.41c13.7,0,22.58-7.91,22.58-21.81s-9.26-21.23-22.58-21.23h-43.23v43.04h43.23Z"/><path class="cls-1" d="M230.25,130.13l38.02,107.88h.39l37.05-107.88h33.58v137.8h-22.97v-106.34h-.39l-38.21,106.34h-19.88l-38.21-106.34h-.39v106.34h-22.97V130.13h33.97Z"/></svg>