<?xml version="1.0" encoding="UTF-8"?><svg id="_イヤー_1" xmlns="http://www.w3.org/2000/svg" viewBox="0 0 400 400"><defs><style>.cls-1{fill:#8b8b8b;}.cls-2{fill:none;stroke:#8b8b8b;stroke-miterlimit:10;stroke-width:15px;}</style></defs><rect class="cls-2" x="11.5" y="11.5" width="377" height="377" rx="79.4" ry="79.4"/><path class="cls-1" d="M174.83,170.63h-24.12v-.19c-1.54-16.21-11.19-24.12-29.72-24.12-14.47,0-25.28,6.37-25.28,17.95,0,9.07,5.79,15.05,17.56,18.14l36.86,9.65c11.77,3.09,28.56,14.28,28.56,35.7,0,27.21-22.39,43.23-54.81,43.23-34.55,0-56.93-17.56-57.51-49.21h24.12c.19,19.69,13.9,29.53,34.93,29.53,18.53,0,29.14-8.68,29.14-20.84,0-8.68-4.25-14.67-11.39-16.98-7.72-2.51-13.7-4.25-39.37-10.81-21.81-5.4-32.23-17.56-32.23-35.51,0-27.98,25.28-40.53,50.37-40.53,29.91,0,52.69,16.21,52.88,44Z"/><path class="cls-1" d="M329.34,199.03c0,39.56-25.09,72.18-66,72.18s-66-32.81-66-72.18,24.9-72.18,66-72.18,66,33,66,72.18Zm-66,52.49c29.72,0,41.88-26.25,41.88-52.49s-12.35-52.49-42.07-52.49-41.69,26.44-41.69,52.49,12.35,52.49,41.88,52.49Z"/></svg>