<?xml version="1.0" encoding="UTF-8"?><svg id="_イヤー_1" xmlns="http://www.w3.org/2000/svg" viewBox="0 0 400 400"><defs><style>.cls-1{fill:none;stroke:#000;stroke-miterlimit:10;stroke-width:15px;}</style></defs><rect class="cls-1" x="11.5" y="11.5" width="377" height="377" rx="79.4" ry="79.4"/><path d="M150.43,129.9c29.53,0,45.93,16.21,45.93,42.65s-16.79,42.27-45.93,42.27h-37.63v52.88h-24.12V129.9h61.76Zm-1.74,65.23c12.74,0,23.54-7.72,23.54-22.77s-8.3-22.77-22.97-22.77h-36.48v45.55h35.9Z"/><path d="M272.2,130.13l53.07,137.8h-25.86l-12.93-36.48h-55l-12.93,36.48h-24.9l52.88-137.8h25.67Zm-13.32,23.74l-20.84,59.25h42.07l-20.65-59.25h-.58Z"/></svg>